Coordinates
version=1
nRows=13
nColumns=38
inDegrees=no

Units are S.I. units (second, meters, Newtons, ...)
If the header above contains a line with 'inDegrees', this indicates whether rotational values are in degrees (yes) or radians (no).

endheader
time	pelvis_tilt	pelvis_list	pelvis_rotation	pelvis_tx	pelvis_ty	pelvis_tz	hip_flexion_r	hip_adduction_r	hip_rotation_r	knee_angle_r	ankle_angle_r	subtalar_angle_r	mtp_angle_r	hip_flexion_l	hip_adduction_l	hip_rotation_l	knee_angle_l	ankle_angle_l	subtalar_angle_l	mtp_angle_l	lumbar_extension	lumbar_bending	lumbar_rotation	arm_flex_r	arm_add_r	arm_rot_r	elbow_flex_r	pro_sup_r	wrist_flex_r	wrist_dev_r	arm_flex_l	arm_add_l	arm_rot_l	elbow_flex_l	pro_sup_l	wrist_flex_l	wrist_dev_l
1.27	3.07496	1.22703	-1.39812	0.795472	0.758951	0.930032	-0.523599	0.0863786	-0.228804	0.451706	-0.166227	0	0	-0.0493305	-0.0105394	-0.112534	0.176037	-0.344356	0	0	-0.365437	0.100629	0.225034	-0.225735	-0.698735	-0.15859	1.65316	0.665801	0	0	0.546979	-0.523946	0.678914	1.1745	0.751713	0	0
1.28	3.07761	1.22544	-1.39909	0.794097	0.770227	0.930058	-0.520257	0.078559	-0.221926	0.491517	-0.189486	0	0	-0.0524232	-0.0109808	-0.117566	0.192472	-0.357365	0	0	-0.365865	0.0997342	0.222382	-0.227817	-0.697949	-0.157984	1.6523	0.665778	0	0	0.547145	-0.523709	0.679819	1.17376	0.752395	0	0
1.29	3.08179	1.2244	-1.4015	0.792613	0.78145	0.930444	-0.507363	0.0679646	-0.216088	0.538606	-0.219994	0	0	-0.054173	-0.0112332	-0.11994	0.214524	-0.365182	0	0	-0.3662	0.0986258	0.219248	-0.229943	-0.697195	-0.157102	1.65154	0.664326	0	0	0.546288	-0.523085	0.67967	1.17267	0.752791	0	0
1.3	3.09006	1.22204	-1.40802	0.791145	0.792479	0.931301	-0.492056	0.0544189	-0.211419	0.590495	-0.257409	0	0	-0.0578631	-0.0101083	-0.12036	0.238557	-0.368997	0	0	-0.368727	0.0962654	0.215864	-0.231507	-0.696064	-0.156273	1.65092	0.661024	0	0	0.545841	-0.522887	0.679824	1.17177	0.753392	0	0
1.31	3.10206	1.21871	-1.4181	0.789757	0.803239	0.932425	-0.474131	0.0389825	-0.208091	0.644843	-0.301745	0	0	-0.0637372	-0.00726788	-0.119582	0.260561	-0.367962	0	0	-0.373017	0.0924955	0.212444	-0.232746	-0.6956	-0.155703	1.65029	0.658757	0	0	0.546613	-0.523566	0.681295	1.17186	0.752698	0	0
1.32	3.11448	1.21517	-1.42869	0.788455	0.81377	0.933604	-0.452866	0.0227459	-0.205621	0.701315	-0.357878	0	0	-0.0706214	-0.00398658	-0.119861	0.280783	-0.360186	0	0	-0.37801	0.0884581	0.20956	-0.234344	-0.69553	-0.156278	1.65017	0.657942	0	0	0.548484	-0.524773	0.68427	1.17292	0.750187	0	0
1.33	3.12729	1.21183	-1.44013	0.78717	0.824115	0.934732	-0.42811	0.00588288	-0.203244	0.759872	-0.418587	0	0	-0.0787498	-0.000186151	-0.123221	0.298079	-0.350264	0	0	-0.38327	0.0842969	0.207438	-0.236955	-0.69541	-0.158517	1.65165	0.655449	0	0	0.550891	-0.526087	0.687923	1.17508	0.745306	0	0
1.34	3.14078	1.20881	-1.45297	0.785818	0.834246	0.935777	-0.400333	-0.0114473	-0.200091	0.819691	-0.47662	0	0	-0.0884319	0.00427889	-0.13052	0.312211	-0.339732	0	0	-0.388559	0.0800749	0.20616	-0.240066	-0.697054	-0.161234	1.65419	0.652526	0	0	0.553873	-0.527172	0.692131	1.17735	0.740848	0	0
1.35	-3.13024	1.20655	-1.46535	0.784499	0.844231	0.936701	-0.37024	-0.0275486	-0.194711	0.879262	-0.518179	0	0	-0.0992096	0.00832753	-0.139682	0.323311	-0.328787	0	0	-0.393065	0.0763393	0.205376	-0.242801	-0.698726	-0.164126	1.65736	0.647685	0	0	0.556271	-0.528384	0.695572	1.17998	0.738429	0	0
1.36	-3.12211	1.20495	-1.47428	0.783324	0.854063	0.937506	-0.338617	-0.0406554	-0.187121	0.936951	-0.551242	0	0	-0.110302	0.0104102	-0.148335	0.333123	-0.315869	0	0	-0.39664	0.0739322	0.204978	-0.244614	-0.701027	-0.16647	1.66021	0.643862	0	0	0.558128	-0.52957	0.698158	1.18268	0.735942	0	0
1.37	-3.11839	1.20324	-1.47933	0.78233	0.863743	0.938341	-0.306936	-0.0503553	-0.178532	0.991353	-0.575523	0	0	-0.122239	0.0107101	-0.154888	0.340364	-0.304356	0	0	-0.400004	0.0730466	0.204661	-0.244961	-0.704219	-0.167102	1.66248	0.644409	0	0	0.559378	-0.530658	0.699613	1.18494	0.733178	0	0
1.38	-3.11883	1.2021	-1.48048	0.781534	0.873355	0.939274	-0.27443	-0.057155	-0.170642	1.0427	-0.59488	0	0	-0.133711	0.00917049	-0.159408	0.346295	-0.293301	0	0	-0.402547	0.0736534	0.204081	-0.243925	-0.706495	-0.166778	1.66426	0.644891	0	0	0.559912	-0.531906	0.700368	1.18658	0.72995	0	0
1.39	-3.12156	1.20106	-1.47948	0.780825	0.882863	0.940468	-0.241745	-0.0623491	-0.163375	1.09079	-0.598089	0	0	-0.145579	0.00674763	-0.162526	0.349298	-0.284569	0	0	-0.404811	0.0753284	0.20321	-0.241586	-0.708054	-0.165577	1.6652	0.644302	0	0	0.559869	-0.532427	0.700084	1.18656	0.727289	0	0
